PathFileType	4	(X/Y/Z)	C:\Users\WrightLab\Desktop\Jo\P1_boxCal23.trc
DataRate	CameraRate	NumFrames	NumMarkers	Units	OrigDataRate	OrigDataStartFrame	OrigNumFrames
100.00	100.00	       78	19	mm	100.00	88	       701
Frame#	Time	Headset_Front			Headset_Back			Headset_Left			Headset_Right			Left_Shoulder			Right_Shoulder			Sternum			C7			Left Elbow			Right Elbow			Left Wrist			Right Wrist			Left ASIS			Right ASIS			S2			Left Knee			Right Knee			Left Ankle			Right Ankle			
		X1	Y1	Z1	X2	Y2	Z2	X3	Y3	Z3	X4	Y4	Z4	X5	Y5	Z5	X6	Y6	Z6	X7	Y7	Z7	X8	Y8	Z8	X9	Y9	Z9	X10	Y10	Z10	X11	Y11	Z11	X12	Y12	Z12	X13	Y13	Z13	X14	Y14	Z14	X15	Y15	Z15	X16	Y16	Z16	X17	Y17	Z17	X18	Y18	Z18	X19	Y19	Z19	

88	0.870																																		-452.35190	886.10193	1961.66382																						
89	0.880																																		-455.45392	886.37189	1957.62341																						
90	0.890																																		-458.36603	882.80005	1951.15527																						
91	0.900																																		-461.10672	882.00336	1945.45886																						
92	0.910																																		-464.04486	879.17798	1938.26245																						
93	0.920																																		-466.20825	876.86731	1933.63062																						
94	0.930																																		-468.47464	874.17950	1927.66431																						
95	0.940																																		-470.77591	871.13788	1922.04602																						
96	0.950																																		-473.06500	868.56757	1915.34204																						
97	0.960																																		-474.74121	866.27881	1909.15955																						
98	0.970																																		-476.64737	862.53430	1903.75916																						
99	0.980																																		-478.46616	859.81470	1897.65515																						
100	0.990																																		-478.26956	856.38092	1892.43237																						
101	1.000																																		-480.26309	853.46368	1887.07568																						
102	1.010																																		-480.99756	850.09186	1881.26746																						
103	1.020																																		-481.69022	846.62994	1874.98657																						
104	1.030																																		-482.42935	843.23181	1869.75146																						
105	1.040																																		-483.10889	840.07257	1863.08887																						
106	1.050																																		-483.55136	836.39294	1858.02014																						
107	1.060																																		-483.19635	832.72437	1852.35217																						
108	1.070																																		-485.69781	830.53961	1847.29980																						
109	1.080																																		-485.50342	826.38202	1840.43286																						
110	1.090																																		-486.48947	821.80145	1834.48254																						
111	1.100																																		-486.28857	817.08350	1827.94971																						
112	1.110																																		-486.61774	814.36365	1823.59497																						
113	1.120																																		-486.58521	809.41351	1816.46606																						
114	1.130																																		-487.22467	805.35681	1810.22363																						
115	1.140																																		-486.52359	801.95715	1806.05725																						
116	1.150																																		-487.33734	797.34222	1798.95764																						
117	1.160																																		-486.74680	793.61816	1792.83862																						
118	1.170																																		-486.33087	789.03351	1787.29956																						
119	1.180																																		-486.82434	784.93164	1781.26538																						
120	1.190																																		-486.66113	780.57184	1775.57751																						
121	1.200																																		-486.79633	775.61926	1770.05286																						
122	1.210																																		-487.50668	771.43536	1763.27722																						
123	1.220																																		-486.48535	766.37585	1757.18958																						
124	1.230																																		-487.11639	761.53400	1751.79761																						
125	1.240													-943.28259	1320.04150	1952.08252																			-487.10916	757.15778	1746.95435																						
126	1.250													-943.36530	1319.75842	1942.47681																			-486.66492	753.55615	1741.23108																						
127	1.260													-943.37170	1319.47131	1932.34631																			-487.29910	748.94934	1735.50610																						
128	1.270													-943.38361	1319.92651	1922.06873																			-486.85345	744.52484	1730.63574																						
129	1.280													-943.29230	1320.38696	1911.21082																			-487.66721	740.54779	1726.10120																						
130	1.290													-943.08002	1320.68848	1901.39160																			-488.06805	737.59106	1721.34021																						
131	1.300													-943.21692	1321.15601	1891.71252																			-488.11423	734.51019	1717.31177										-1026.71802	456.68515	2046.44092										
132	1.310													-943.54175	1321.56641	1882.01184																			-489.23016	732.50806	1714.57605										-1034.29297	456.54514	2031.23621										
133	1.320													-943.84241	1321.90906	1871.85046																			-489.69193	729.28638	1711.02612										-1042.52832	457.14679	2016.97388										
134	1.330													-944.15253	1322.16162	1862.42786																			-489.84192	726.40076	1706.72559										-1049.90576	457.91599	2002.55774										
135	1.340													-944.68976	1322.46497	1853.23096																			-490.10147	724.26318	1703.42578										-1057.35266	459.33728	1988.56055										
136	1.350													-945.10907	1322.77026	1843.68921																			-490.56598	721.73737	1699.72461										-1064.59985	460.53815	1974.11279										
137	1.360													-945.76031	1322.86670	1834.79077																			-490.62158	719.79297	1697.05847										-1071.59595	461.92133	1961.52686										
138	1.370													-946.43738	1323.08252	1826.46155																			-491.48502	717.34436	1691.32007										-1077.53406	463.38568	1947.22778										
139	1.380													-946.91992	1323.65369	1817.08118																			-491.37280	715.67694	1687.99731										-1083.34375	465.24661	1933.37671										
140	1.390													-947.20911	1323.95349	1808.43665																			-492.97327	714.25488	1683.81543										-1089.31909	466.72116	1919.81360										
141	1.400													-947.98486	1324.45325	1800.69604																			-492.35608	712.42499	1680.51990										-1094.41650	468.91266	1905.32715										
142	1.410													-948.38910	1325.19043	1791.14661																			-491.86877	711.83643	1678.30896										-1099.79749	470.66760	1892.20679										
143	1.420													-948.59027	1325.92334	1783.22253																			-493.17636	711.30524	1674.96802										-1104.58362	473.40317	1878.25134										
144	1.430													-948.85760	1326.70459	1775.10352																			-492.62180	709.94952	1671.36462										-1109.44250	475.33719	1865.83191										
145	1.440													-949.06628	1327.64624	1766.52344																			-493.44025	708.72961	1666.59937										-1113.79810	477.91656	1852.23682										
146	1.450													-949.25146	1328.43958	1758.43359																			-492.82883	707.94415	1664.20056										-1117.94287	480.90366	1840.08191										
147	1.460													-949.84735	1329.22681	1750.31555																			-492.81430	707.15131	1659.45056										-1121.57898	484.62924	1827.46497										
148	1.470													-949.92456	1329.83643	1742.57349																			-493.04410	706.87408	1656.72742										-1124.83020	488.34747	1816.21838										
149	1.480													-949.95013	1330.84900	1733.31262																			-492.97247	708.30096	1654.47534										-1127.67346	492.14502	1804.97839										
150	1.490													-950.13470	1331.48389	1726.84497																			-493.30817	708.36346	1649.99365										-1130.33044	495.96384	1794.23462										
151	1.500													-950.46210	1332.27783	1718.44666																			-492.48148	708.09521	1647.19299										-1132.23523	499.47589	1783.84167										
152	1.510													-951.00208	1332.96167	1710.56519																			-492.33716	707.37134	1642.56506										-1134.04565	502.85904	1772.64844										
153	1.520													-951.56177	1333.43811	1703.80823																			-492.53534	708.25592	1640.63232										-1135.66016	505.79297	1762.22107										
154	1.530													-952.04486	1334.26990	1695.01929																			-493.00018	709.50641	1638.87219										-1136.65491	508.40927	1752.75671										
155	1.540													-952.50012	1334.54358	1689.73279																			-492.38770	710.36890	1637.31409										-1137.12036	511.04361	1742.68384										
156	1.550													-953.49463	1335.15076	1681.01709																			-493.67450	711.68915	1633.99683										-1137.76807	513.26404	1732.31543										
157	1.560													-954.57672	1335.57739	1676.06140																			-493.98160	712.39777	1633.49756										-1137.57336	515.23425	1723.27429										
158	1.570													-955.09467	1336.18787	1668.05469																			-493.56900	713.65631	1631.93713										-1136.99756	516.88239	1714.23279										
159	1.580													-956.23029	1336.43384	1661.79468																			-495.08224	713.39819	1627.94226										-1136.03186	518.58600	1705.84692										
160	1.590													-957.22858	1336.81946	1654.45618																			-495.59427	714.72894	1626.94006										-1134.73828	519.87402	1697.56104										
161	1.600													-958.25104	1337.00500	1647.84033																			-495.96719	716.88702	1626.50696										-1133.05737	520.61914	1689.43445										
162	1.610													-959.41119	1337.31396	1641.29626																			-497.25485	716.50891	1624.01831										-1131.08972	521.39587	1681.79492										
163	1.620													-960.76831	1337.56604	1635.05676																			-498.04480	717.43256	1623.08362										-1129.31592	522.19128	1674.68176										
164	1.630													-961.97662	1337.50256	1628.36841																			-499.53543	718.67621	1622.13074										-1127.78320	522.42023	1666.94727										
165	1.640													-963.15649	1337.67017	1621.58899																			-499.80957	718.93909	1621.95483										-1126.56604	522.57550	1660.64832										
